<svg id="Capa_1" enable-background="new 0 0 512 512" height="512" viewBox="0 0 512 512" width="512" xmlns="http://www.w3.org/2000/svg"><path d="m231.952 239.968h48.097v48.097h-48.097z" fill="#c8c5c9"/><path d="m384.258 7.5h-256.516c-26.563 0-48.097 21.534-48.097 48.097v144.29c0 26.563 21.534 48.097 48.097 48.097h256.516c26.563 0 48.097-21.534 48.097-48.097v-144.29c0-26.563-21.534-48.097-48.097-48.097z" fill="#eceaec"/><path d="m384.258 215.919h-256.516c-8.854 0-16.032-7.178-16.032-16.032v-144.29c0-8.854 7.178-16.032 16.032-16.032h256.516c8.854 0 16.032 7.178 16.032 16.032v144.29c0 8.854-7.178 16.032-16.032 16.032z" fill="#b3e59f"/><path d="m352.194 191.871h-192.388c-13.282 0-24.048-10.767-24.048-24.048v-80.162c0-13.282 10.767-24.048 24.048-24.048h192.387c13.282 0 24.048 10.767 24.048 24.048v80.161c.001 13.282-10.766 24.049-24.047 24.049z" fill="#ccf49f"/><path d="m191.871 167.823c-8.854 0-16.032-7.178-16.032-16.032v-48.097c0-8.854 7.178-16.032 16.032-16.032 8.854 0 16.032 7.178 16.032 16.032v48.097c0 8.854-7.178 16.032-16.032 16.032z" fill="#fff"/><path d="m320.129 167.823c-8.854 0-16.032-7.178-16.032-16.032v-48.097c0-8.854 7.178-16.032 16.032-16.032 8.854 0 16.032 7.178 16.032 16.032v48.097c0 8.854-7.178 16.032-16.032 16.032z" fill="#fff"/><path d="m336.161 280.048h-160.322c-13.282 0-16.548 10.767-16.548 24.048v96.194c0 57.553 39.156 104.21 96.709 104.21s104.21-46.656 104.21-104.21v-96.194c0-13.281-10.767-24.048-24.049-24.048z" fill="#eceaec"/><path d="m183.855 280.048v24.048c0 39.845 32.3 72.145 72.145 72.145s72.145-32.3 72.145-72.145v-24.048z" fill="#b3e59f"/><path d="m127.742 223.935c-13.26 0-24.048-10.788-24.048-24.048v-185.9c-14.362 8.319-24.048 23.817-24.048 41.61v144.29c0 26.563 21.534 48.097 48.097 48.097h256.516c17.792 0 33.29-9.686 41.609-24.048h-298.126z" fill="#dad8db"/><path d="m256 352.194c-26.563 0-48.097-21.534-48.097-48.097v-24.048h96.194v24.048c0 26.563-21.534 48.097-48.097 48.097z" fill="#ccf49f"/><path d="m275.011 488.349c-56.05-2.64-99.172-50.922-99.172-107.034v-101.267c-13.282 0-24.048 10.767-24.048 24.048v96.194c0 57.553 46.656 104.21 104.21 104.21 26.528 0 50.666-9.995 69.062-26.318-15.048 7.225-32.059 11.014-50.052 10.167z" fill="#dad8db"/><path d="m407.791 199.887v-104.21c0-4.142-3.358-7.5-7.5-7.5s-7.5 3.358-7.5 7.5v104.21c0 4.705-3.828 8.532-8.532 8.532h-256.517c-4.705 0-8.532-3.828-8.532-8.532v-144.29c0-4.705 3.828-8.532 8.532-8.532h256.517c4.705 0 8.532 3.828 8.532 8.532v8.015c0 4.142 3.358 7.5 7.5 7.5s7.5-3.358 7.5-7.5v-8.015c0-12.976-10.557-23.532-23.532-23.532h-256.517c-12.976 0-23.532 10.557-23.532 23.532v144.291c0 12.976 10.557 23.532 23.532 23.532h256.517c12.975-.001 23.532-10.557 23.532-23.533z"/><path d="m168.339 103.693v48.097c0 12.976 10.557 23.532 23.532 23.532s23.532-10.557 23.532-23.532v-48.097c0-12.976-10.557-23.532-23.532-23.532s-23.532 10.557-23.532 23.532zm32.064 0v48.097c0 4.705-3.828 8.532-8.532 8.532s-8.532-3.828-8.532-8.532v-48.097c0-4.705 3.828-8.532 8.532-8.532s8.532 3.828 8.532 8.532z"/><path d="m296.597 103.693v48.097c0 12.976 10.557 23.532 23.532 23.532s23.532-10.557 23.532-23.532v-48.097c0-12.976-10.557-23.532-23.532-23.532s-23.532 10.557-23.532 23.532zm32.064 0v48.097c0 4.705-3.828 8.532-8.532 8.532s-8.532-3.828-8.532-8.532v-48.097c0-4.705 3.828-8.532 8.532-8.532s8.532 3.828 8.532 8.532z"/><path d="m423.823 385.683v-30.677c0-3.511-1.208-6.953-3.4-9.692l-27.901-34.876c-2.961-3.701-7.377-5.824-12.116-5.824h-12.696v-.516c0-17.396-14.152-31.548-31.548-31.548h-48.613v-17.064h96.71c30.656 0 55.597-24.94 55.597-55.597v-144.292c-.001-30.657-24.941-55.597-55.598-55.597h-256.516c-30.657 0-55.597 24.94-55.597 55.597v144.291c0 30.656 24.94 55.597 55.597 55.597h96.71v17.064h-48.613c-17.396 0-31.548 14.152-31.548 31.548v.516h-12.696c-4.739 0-9.155 2.123-12.116 5.824l-27.9 34.875c-2.193 2.741-3.401 6.183-3.401 9.694v30.677c-13.786 3.375-24.048 15.829-24.048 30.64 0 17.396 14.152 31.548 31.548 31.548 4.142 0 7.5-3.358 7.5-7.5s-3.358-7.5-7.5-7.5c-9.125 0-16.548-7.423-16.548-16.548s7.423-16.548 16.548-16.548 16.548 7.423 16.548 16.548c0 4.142 3.358 7.5 7.5 7.5s7.5-3.358 7.5-7.5c0-14.812-10.262-27.265-24.048-30.64v-30.677c0-.116.04-.23.113-.322l27.901-34.876c.099-.123.246-.194.403-.194h12.696v8.533c0 4.142 3.358 7.5 7.5 7.5s7.5-3.358 7.5-7.5v-24.049c0-9.125 7.423-16.548 16.548-16.548h.516v16.548c0 41.386 31.734 75.488 72.145 79.281v113.333c-49.834-3.84-89.209-45.619-89.209-96.421v-40.081c0-4.142-3.358-7.5-7.5-7.5s-7.5 3.358-7.5 7.5v40.081c0 61.596 50.112 111.709 111.709 111.709s111.709-50.113 111.709-111.709v-80.678h12.696c.158 0 .305.071.403.194l27.902 34.878c.072.09.112.205.112.321v30.677c-13.786 3.375-24.048 15.829-24.048 30.64 0 4.142 3.358 7.5 7.5 7.5s7.5-3.358 7.5-7.5c0-9.125 7.423-16.548 16.548-16.548s16.548 7.423 16.548 16.548-7.423 16.548-16.548 16.548c-4.142 0-7.5 3.358-7.5 7.5s3.358 7.5 7.5 7.5c17.396 0 31.548-14.152 31.548-31.548.001-14.812-10.261-27.265-24.047-30.64zm-336.678-185.796v-144.29c0-22.386 18.211-40.597 40.597-40.597h256.517c22.385 0 40.597 18.211 40.597 40.597v144.291c0 22.385-18.211 40.597-40.597 40.597h-256.517c-22.386-.001-40.597-18.213-40.597-40.598zm152.307 55.597h33.097v17.064h-33.097zm-48.097 48.613v-16.548h129.29v16.548c0 35.646-29 64.645-64.645 64.645s-64.645-29-64.645-64.645zm161.354 96.194c0 50.802-39.375 92.58-89.209 96.421v-113.334c40.411-3.793 72.145-37.895 72.145-79.281v-16.548h.516c9.125 0 16.548 7.423 16.548 16.548z"/></svg>